<?xml version="1.0" encoding="UTF-8" standalone="no"?>
<!-- Created with Inkscape (http://www.inkscape.org/) -->

<svg
   width="1920"
   height="1080"
   viewBox="0 0 1920 1080"
   version="1.1"
   id="svg1"
   inkscape:version="1.4 (e7c3feb1, 2024-10-09)"
   sodipodi:docname="video-backgrounds.svg"
   inkscape:export-filename="video-backgrounds.png"
   inkscape:export-xdpi="96"
   inkscape:export-ydpi="96"
   xmlns:inkscape="http://www.inkscape.org/namespaces/inkscape"
   xmlns:sodipodi="http://sodipodi.sourceforge.net/DTD/sodipodi-0.dtd"
   xmlns="http://www.w3.org/2000/svg"
   xmlns:svg="http://www.w3.org/2000/svg">
  <sodipodi:namedview
     id="namedview1"
     pagecolor="#ffffff"
     bordercolor="#000000"
     borderopacity="0.25"
     inkscape:showpageshadow="2"
     inkscape:pageopacity="0.0"
     inkscape:pagecheckerboard="0"
     inkscape:deskcolor="#d1d1d1"
     inkscape:document-units="px"
     inkscape:zoom="0.33031427"
     inkscape:cx="1021.7542"
     inkscape:cy="457.14041"
     inkscape:window-width="1352"
     inkscape:window-height="751"
     inkscape:window-x="0"
     inkscape:window-y="38"
     inkscape:window-maximized="0"
     inkscape:current-layer="layer1" />
  <defs
     id="defs1">
    <inkscape:path-effect
       effect="powerstroke"
       message=""
       id="path-effect2"
       is_visible="true"
       lpeversion="1.3"
       scale_width="1.2"
       interpolator_type="CentripetalCatmullRom"
       interpolator_beta="0.2"
       start_linecap_type="zerowidth"
       end_linecap_type="zerowidth"
       offset_points="0.2,1 | 1.2630287,1.7425322 | 2.4991052,0.4214096"
       linejoin_type="round"
       miter_limit="4"
       not_jump="false"
       sort_points="true" />
    <inkscape:path-effect
       effect="powerstroke"
       message=""
       id="path-effect3"
       is_visible="true"
       lpeversion="1.3"
       scale_width="1.7"
       interpolator_type="CentripetalCatmullRom"
       interpolator_beta="0.2"
       start_linecap_type="zerowidth"
       end_linecap_type="zerowidth"
       offset_points="0.22859899,0.68388144 | 1.5032672,0.96286318 | 2.2652332,0.46816498"
       linejoin_type="round"
       miter_limit="4"
       not_jump="false"
       sort_points="true" />
    <rect
       x="118.16962"
       y="218.70197"
       width="892.44513"
       height="418.00296"
       id="rect14" />
    <rect
       x="471.41687"
       y="372.3884"
       width="10.315468"
       height="28.88331"
       id="rect884" />
  </defs>
  <g
     inkscape:label="Layer 1"
     inkscape:groupmode="layer"
     id="layer1">
    <rect
       style="fill:#f6fcfe;fill-opacity:1;stroke:none;stroke-width:2.89038;stroke-linecap:round;stroke-linejoin:bevel;stroke-dasharray:none;stroke-opacity:1"
       id="rect878"
       width="1964.5656"
       height="1099.1953"
       x="-22.236691"
       y="-15.290139"
       ry="27.795019" />
    <g
       inkscape:label="Layer 1"
       inkscape:groupmode="layer"
       id="layer1-0"
       transform="matrix(1.7514877,0,0,1.7514877,-8.377311,6.339212)">
      <path
         style="display:none;fill:#f5f5f5;fill-opacity:1;fill-rule:nonzero;stroke:none;stroke-width:30.6477;stroke-linecap:round;stroke-linejoin:bevel;stroke-dasharray:none"
         d="M -190.0304,1144.9056 C 382.95383,781.1321 689.32928,423.42896 753.71264,353.55404 975.30987,113.05521 1061.2551,-129.32662 982.06034,-145.21048 918.17765,-158.02322 721.35623,-13.521687 721.35623,-13.521687 l -9.35194,-223.212033 468.73271,-9.46935 4.7347,1410.93297 z"
         id="path63"
         sodipodi:nodetypes="cssc"
         inkscape:label="bluestroke-grey" />
      <path
         style="display:none;fill:#f6fcfe;fill-opacity:1;fill-rule:nonzero;stroke:none;stroke-width:30.6477;stroke-linecap:round;stroke-linejoin:bevel;stroke-dasharray:none"
         d="M -190.0304,1144.9056 C 382.95383,781.1321 689.32928,423.42896 753.71264,353.55404 975.30987,113.05521 1061.2551,-129.32662 982.06034,-145.21048 918.17765,-158.02322 721.35623,-13.521687 721.35623,-13.521687 l -9.35194,-223.212033 468.73271,-9.46935 4.7347,1410.93297 z"
         id="path60"
         sodipodi:nodetypes="cssc"
         inkscape:label="bluestroke-blue" />
      <path
         style="display:none;fill:#f5f5f5;fill-opacity:1;fill-rule:nonzero;stroke:none;stroke-width:57.0086;stroke-linecap:round;stroke-linejoin:bevel"
         d="M -11.249199,823.14307 C 126.05806,-70.509858 200.71775,-274.82423 306.21935,-292.80107 437.0868,-315.10011 590.29005,7.2112133 723.89849,179.23341 1096.5303,719.32979 1288.8149,703.64737 1288.8149,703.64737 l -8.7587,-1078.00376 C 849.74228,-375.66571 419.433,-376.967 -10.881596,-376.15608 Z"
         id="path62"
         sodipodi:nodetypes="csccccc"
         inkscape:label="blackstroke-grey" />
      <path
         style="display:none;fill:#f6fcfe;fill-opacity:1;fill-rule:nonzero;stroke:none;stroke-width:57.0086;stroke-linecap:round;stroke-linejoin:bevel"
         d="M -11.249199,823.14307 C 126.05806,-70.509858 200.71775,-274.82423 306.21935,-292.80107 437.0868,-315.10011 590.29005,7.2112133 723.89849,179.23341 1096.5303,719.32979 1288.8149,703.64737 1288.8149,703.64737 l -8.7587,-1078.00376 C 849.74228,-375.66571 419.433,-376.967 -10.881596,-376.15608 Z"
         id="path5"
         sodipodi:nodetypes="csccccc"
         inkscape:label="blackstroke-blue" />
      <path
         style="display:inline;fill:#f5f5f5;fill-opacity:1;fill-rule:nonzero;stroke:none;stroke-width:20.3145;stroke-linecap:round;stroke-linejoin:bevel;stroke-dasharray:none"
         d="M 303.07712,827.78434 C 682.87372,586.66088 885.95149,349.5611 928.62732,303.24523 1075.5107,143.8331 1132.4786,-16.827162 1079.9852,-27.355613 c -42.344,-8.492793 27.2927,-41.34566 27.2927,-41.34566 l 58.7678,-32.312907 45.6302,6.71669 3.1384,935.22216 z"
         id="path65"
         sodipodi:nodetypes="cssccccc"
         inkscape:label="bluestrokepart-grey" />
      <path
         style="display:inline;fill:#f5f5f5;fill-opacity:1;fill-rule:nonzero;stroke:none;stroke-width:37.7876;stroke-linecap:round;stroke-linejoin:bevel"
         d="M 1.3101898,614.50741 C 92.322838,22.158917 141.8102,-113.26873 211.74083,-125.18449 c 86.74413,-14.78069 116.84334,-71.60129 241.78569,-25.14361 28.3135,-3.61032 118.92617,-11.24657 118.92617,-11.24657 l 284.78574,-17.66791 c -285.2291,-0.86787 -570.45511,-1.73042 -855.6845802,-1.19291 z"
         id="path64"
         sodipodi:nodetypes="csccccc"
         inkscape:label="blackstrokepart-grey" />
      <g
         id="g7"
         transform="translate(-29.59554,12.82899)"
         style="display:none"
         sodipodi:insensitive="true">
        <path
           style="display:inline;fill:#0b0707;fill-opacity:1;fill-rule:nonzero;stroke:none;stroke-width:2;stroke-linecap:round;stroke-linejoin:bevel"
           d="m 14.376343,72.935302 c 1.054445,-5.523751 3.504658,-16.892313 5.803128,-27.75304 0.377337,-1.782991 0.775161,-3.648066 1.188688,-5.543917 1.603564,-7.351667 3.324594,-14.621083 5.154023,-20.378809 0.756689,-2.38151 1.508094,-4.430312 2.263712,-6.143369 0.716554,-1.624497 1.410413,-2.886711 2.084649,-3.8439022 C 31.524959,8.3432107 32.123126,7.75524 32.656737,7.3854303 32.919058,7.2036332 33.168452,7.07259 33.40707,6.9776964 c 0.238644,-0.094904 0.479729,-0.1588988 0.728672,-0.1974744 0.275341,-0.043066 0.562522,-0.043623 0.869559,0.00161 0.313904,0.046247 0.658092,0.1421145 1.033225,0.2971021 0.788752,0.3258764 1.659296,0.8892371 2.60165,1.6832966 0.09988,0.084162 0.200104,0.1705222 0.300651,0.2590083 0.851133,0.7490309 1.757605,1.6716125 2.729028,2.7757055 1.039519,1.181489 2.116181,2.528206 3.242248,4.024256 2.213469,2.94073 4.40042,6.162576 6.721461,9.507797 2.285681,3.294258 4.513354,6.429746 6.679919,9.006181 6.046428,8.516388 11.18831,14.506299 15.386287,18.76486 4.792261,4.861421 8.525939,7.638396 11.113936,9.281 8e-6,5e-6 0.03205,0.02032 0.03206,0.02032 3.078574,1.94971 5.329029,2.760203 6.746212,3.093726 1.97215,0.46413 2.264077,0.184027 2.260093,0.135183 -0.004,-0.04884 -0.283257,0.05333 -2.125144,-0.597014 -1.315302,-0.464416 -3.433392,-1.413131 -6.318275,-3.469696 7e-6,5e-6 -0.03014,-0.0215 -0.03013,-0.0215 C 82.949942,59.807503 79.451148,56.888955 74.947738,51.919992 70.994763,47.558366 66.122603,41.458174 60.355255,32.855744 a 0.05708333,5.5274634e-4 54.335378 0 0 -0.04203,-0.05739 C 58.428123,30.155158 56.473957,26.973279 54.380703,23.540414 52.297006,20.123222 50.197122,16.661861 48.063621,13.556264 46.964903,11.956932 45.872304,10.47419 44.780123,9.1505306 43.760618,7.9149517 42.744753,6.821956 41.726154,5.9016686 41.604936,5.7921503 41.48282,5.6842037 41.359835,5.5780163 40.228522,4.6012183 38.983749,3.7383107 37.647389,3.1859415 36.993991,2.9158667 36.307227,2.7152312 35.593288,2.6163898 c -0.707786,-0.097989 -1.431968,-0.09437 -2.16127,0.033827 -0.555222,0.098501 -1.10609,0.2604219 -1.64851,0.4966334 -0.541142,0.2356554 -1.059339,0.5389136 -1.55521,0.9104229 -0.997051,0.7469968 -1.876656,1.7491688 -2.67696,2.981975 -0.822144,1.2664499 -1.577969,2.8035903 -2.292889,4.6021501 -0.756514,1.903198 -1.472979,4.114711 -2.162157,6.600611 -1.648361,5.945725 -3.153632,13.576878 -4.378506,20.885703 -0.322425,1.923905 -0.624157,3.817458 -0.899615,5.625293 -1.657207,10.876297 -2.80616,22.740537 -3.441828,28.182297 z"
           id="path1"
           sodipodi:nodetypes="cscc"
           inkscape:path-effect="#path-effect2"
           inkscape:original-d="M 14.376343,72.935302 C 22.770225,18.304363 27.334336,5.8141824 33.783879,4.7152195 41.784093,3.3520316 51.149744,23.055615 59.317511,33.571711 82.09729,66.588969 93.852071,65.630274 93.852071,65.630274"
           transform="translate(740.12154,38.75854)" />
        <path
           style="display:inline;fill:#16bdee;fill-opacity:1;fill-rule:nonzero;stroke:none;stroke-width:8.2;stroke-linecap:round;stroke-linejoin:bevel;stroke-dasharray:none"
           d="M 1.4960776,95.117127 C 6.012813,92.495279 14.606579,87.664841 24.285739,80.636017 30.430744,76.17363 37.315066,70.669496 44.185863,64.478821 c 4.725268,-4.257526 8.690914,-8.158469 11.9241,-11.512499 1.474882,-1.530008 2.712443,-2.857888 3.722146,-3.956579 0.496321,-0.540064 0.931528,-1.018144 1.305418,-1.429159 0.375715,-0.413021 0.681561,-0.749549 0.928456,-1.016926 3.643815,-3.952267 6.622779,-7.827513 8.963498,-11.353806 2.652271,-3.995649 4.419875,-7.439507 5.535701,-10.139617 0.01646,-0.03983 0.03278,-0.07949 0.04896,-0.119004 0.621264,-1.517064 1.071006,-2.896735 1.365814,-4.1273 0.31913,-1.332091 0.465374,-2.524857 0.436497,-3.558177 -0.01501,-0.537187 -0.07769,-1.044425 -0.195003,-1.512857 -0.119477,-0.477069 -0.298561,-0.925245 -0.550388,-1.322827 -0.257514,-0.406561 -0.586561,-0.752493 -0.987271,-1.0128 -0.404325,-0.262656 -0.8503,-0.417904 -1.315965,-0.481584 -0.381273,-0.04722 -0.769147,-0.0278 -1.144887,0.02761 -0.376852,0.05558 -0.766344,0.151172 -1.158941,0.27268 -0.770479,0.238463 -1.616018,0.596683 -2.493226,1.023597 -0.106075,0.05162 -0.212933,0.104411 -0.320514,0.158294 -0.736289,0.368783 -1.530032,0.805287 -2.372776,1.3038 -0.893342,0.528442 -1.807239,1.106185 -2.709014,1.704532 -1.82768,1.212704 -3.456774,2.410641 -4.563707,3.27313 -1.601086,1.247516 -1.872254,1.587969 -1.842299,1.62877 0.04233,0.05766 0.414784,-0.143178 2.14787,-1.183465 1.168821,-0.701585 2.946699,-1.771921 4.816769,-2.793025 0.938255,-0.512311 1.876642,-1.000014 2.78851,-1.437569 0.860346,-0.412833 1.654934,-0.760773 2.380913,-1.04151 0.105766,-0.0409 0.210454,-0.08043 0.314008,-0.118546 0.867437,-0.319305 1.645479,-0.535959 2.300036,-0.634118 0.330763,-0.0496 0.619754,-0.06729 0.862826,-0.05561 0.244997,0.01177 0.426628,0.05277 0.54603,0.107106 0.157049,0.0608 0.247386,0.140637 0.307804,0.219238 0.05736,0.07463 0.110113,0.178409 0.155528,0.313099 0.04684,0.138909 0.09173,0.329144 0.11687,0.586105 0.02479,0.253316 0.02952,0.562611 0.0021,0.93707 -0.05306,0.725808 -0.223619,1.65214 -0.557837,2.79649 -0.306369,1.048996 -0.747337,2.270646 -1.347653,3.659071 -0.01561,0.03609 -0.03135,0.07235 -0.04722,0.108771 -1.077244,2.471391 -2.796829,5.725328 -5.355814,9.521772 -2.268323,3.365225 -5.148897,7.087729 -8.668134,10.909498 -0.259273,0.281956 -0.575867,0.633331 -0.945731,1.044762 -0.372717,0.414606 -0.798875,0.889475 -1.286054,1.428421 -0.989786,1.094957 -2.193928,2.412769 -3.630782,3.938779 C 50.501598,53.991515 46.673661,57.86733 42.073967,62.181177 35.289015,68.54448 28.862185,73.958305 22.872426,78.789647 13.538887,86.318081 5.9101521,92.062174 1.4960776,95.117127 Z"
           id="path2"
           sodipodi:nodetypes="cssc"
           inkscape:path-effect="#path-effect3"
           inkscape:original-d="M 1.4960776,95.117127 C 37.499167,72.259654 56.750066,49.783612 60.795545,45.393067 74.719469,30.28148 80.119791,15.051577 75.143622,14.053524 c -4.014025,-0.80508 -16.381163,8.27458 -16.381163,8.27458"
           transform="translate(740.12154,38.75854)" />
        <text
           xml:space="preserve"
           style="font-style:normal;font-variant:normal;font-weight:normal;font-stretch:normal;font-size:82.4928px;line-height:54.3703px;font-family:'Regio Mono';-inkscape-font-specification:'Regio Mono';text-align:start;writing-mode:lr-tb;direction:ltr;text-anchor:start;display:inline;fill:#3983c3;fill-opacity:1;stroke-width:7.68683;stroke-linecap:round;stroke-linejoin:bevel"
           x="825.47473"
           y="138.99518"
           id="text1"
           transform="scale(1.0191259,0.98123303)"><tspan
             sodipodi:role="line"
             id="tspan1"
             x="825.47473"
             y="138.99518"
             style="font-style:normal;font-variant:normal;font-weight:normal;font-stretch:normal;font-family:Hack;-inkscape-font-specification:Hack;fill:#3983c3;fill-opacity:1;stroke-width:7.68683">GRID</tspan></text>
        <text
           xml:space="preserve"
           style="font-style:normal;font-variant:normal;font-weight:normal;font-stretch:normal;font-size:40px;line-height:26.3637px;font-family:'Regio Mono';-inkscape-font-specification:'Regio Mono';text-align:start;writing-mode:lr-tb;direction:ltr;text-anchor:start;display:inline;fill:#3983c3;fill-opacity:1;stroke-width:7.68683;stroke-linecap:round;stroke-linejoin:bevel"
           x="829.16046"
           y="69.132698"
           id="text2"
           transform="scale(1.0191259,0.98123303)"><tspan
             sodipodi:role="line"
             id="tspan2"
             x="829.16046"
             y="69.132698"
             style="font-style:normal;font-variant:normal;font-weight:normal;font-stretch:normal;font-size:40px;line-height:26.3637px;font-family:Hack;-inkscape-font-specification:Hack;fill:#3983c3;fill-opacity:1;stroke-width:7.68683">AsTeRICS</tspan></text>
      </g>
    </g>
  </g>
</svg>
