<?xml version="1.0" encoding="UTF-8"?>
<!-- Generator: Adobe Illustrator 23.0.2, SVG Export Plug-In . SVG Version: 6.00 Build 0)  -->
<svg version="1.1" id="Ebene_1" xmlns="http://www.w3.org/2000/svg" xmlns:xlink="http://www.w3.org/1999/xlink" x="0px" y="0px" width="200px" height="50px" viewBox="0 0 200 50" style="enable-background:new 0 0 200 50;" xml:space="preserve">
<style type="text/css">
	.st0{fill:url(#SVGID_1_);}
	.st1{fill:url(#SVGID_2_);}
	.st2{opacity:0.6;fill:url(#SVGID_3_);}
	.st3{fill:url(#SVGID_4_);}
	.st4{fill:url(#SVGID_5_);}
	.st5{fill:url(#SVGID_6_);}
	.st6{fill:url(#SVGID_7_);}
	.st7{fill:url(#SVGID_8_);}
	.st8{fill:url(#SVGID_9_);}
	.st9{fill:url(#SVGID_10_);}
	.st10{fill:#244876;}
	.st11{fill:#253777;}
	.st12{fill:url(#SVGID_11_);}
	.st13{fill:url(#SVGID_12_);}
	.st14{fill:url(#SVGID_13_);}
	.st15{fill:#3C3C3B;}
	.st16{fill:#323234;}
</style>
<title>netidee-Logo-4c-Standard Copy</title>
<desc>Created with Sketch.</desc>
<g>
	<linearGradient id="SVGID_1_" gradientUnits="userSpaceOnUse" x1="40.107" y1="49.0829" x2="33.2276" y2="8.432">
		<stop offset="0" style="stop-color:#8AC279"/>
		<stop offset="0.2763" style="stop-color:#88C27C"/>
		<stop offset="0.4681" style="stop-color:#83C185"/>
		<stop offset="0.6342" style="stop-color:#7AC094"/>
		<stop offset="0.7858" style="stop-color:#6EBEAA"/>
		<stop offset="0.9261" style="stop-color:#5DBCC6"/>
		<stop offset="1" style="stop-color:#53BAD8"/>
	</linearGradient>
	<path class="st0" d="M44.3,36.9c-1.4,0-2.5,1-2.6,2.4v1.4v0.2c0,1.4-1.2,2.6-2.6,2.6s-2.6-1.2-2.6-2.6V23.5c0-3.5-1.4-6.8-3.8-9.2   c-1.7-1.7-3.9-2.9-6.3-3.5c-0.2,0.7-0.3,1.5-0.3,2.3v3.1c3,1.1,5.2,4,5.2,7.4v17.4c0,4.3,3.5,7.8,7.8,7.8c4.3,0,7.8-3.5,7.8-7.8   v-0.2v-1.2C46.8,38,45.7,36.9,44.3,36.9z"/>
	
		<linearGradient id="SVGID_2_" gradientUnits="userSpaceOnUse" x1="455.3406" y1="98.8539" x2="455.3406" y2="53.7878" gradientTransform="matrix(-1 0 0 -1 493.5165 97.833)">
		<stop offset="0" style="stop-color:#693388"/>
		<stop offset="1" style="stop-color:#3FB8EA"/>
	</linearGradient>
	<path class="st1" d="M43.1,3.8C40.7,1.4,37.3,0,33.9,0c-1.5,0-3,0.3-4.4,0.8c4,1,7.6,3.1,10.6,6.1c4.1,4.1,6.5,9.5,6.8,15.3   c0-0.1,0-0.3,0-0.4V13C46.9,9.6,45.5,6.3,43.1,3.8z"/>
	
		<linearGradient id="SVGID_3_" gradientUnits="userSpaceOnUse" x1="-3.8362" y1="2403.3882" x2="-3.8362" y2="2427.2876" gradientTransform="matrix(1 0 0 -1 35.2957 2437.3623)">
		<stop offset="0" style="stop-color:#8BC270;stop-opacity:0"/>
		<stop offset="1" style="stop-color:#4F5C96"/>
	</linearGradient>
	<path class="st2" d="M26.4,10.8L26.4,10.8c2.4,0.6,4.5,1.7,6.3,3.5c2.4,2.4,3.8,5.8,3.8,9.2v7.8c0,0.9-0.5,1.8-1.3,2.2h-2.7   c-0.8-0.5-1.3-1.3-1.3-2.2v-7.8c0,0,0,0,0,0v-5.2C31.3,14.9,29.4,11.9,26.4,10.8z"/>
	
		<linearGradient id="SVGID_4_" gradientUnits="userSpaceOnUse" x1="153.6831" y1="-6.7503" x2="138.8651" y2="66.1047" gradientTransform="matrix(1 0 0 1 -133.2705 0)">
		<stop offset="5.439496e-02" style="stop-color:#53BAD8"/>
		<stop offset="0.7384" style="stop-color:#D0D037"/>
	</linearGradient>
	<path class="st3" d="M23.5,26.2c-1.4,0-2.6-1.2-2.6-2.6v13.1c0,4.3-3.5,7.8-7.8,7.8c-4.3,0-7.8-3.5-7.8-7.8V23.5   c0-4.8,1.9-9.5,5.3-12.9c3.4-3.4,8.1-5.3,12.9-5.3c0,0,0,0,0,0c0.4-0.5,0.8-1,1.2-1.4c1.4-1.4,3-2.4,4.8-3c-1.9-0.5-3.9-0.8-6-0.8   C17.2,0,11.3,2.5,6.9,6.9C2.5,11.3,0,17.2,0,23.5v13.2c0,3.5,1.4,6.8,3.8,9.2c2.4,2.4,5.8,3.8,9.2,3.8c3.5,0,6.8-1.4,9.2-3.8   c2.4-2.4,3.8-5.8,3.8-9.2V23.6C26.1,25,24.9,26.2,23.5,26.2z"/>
	
		<linearGradient id="SVGID_5_" gradientUnits="userSpaceOnUse" x1="154.1488" y1="-6.6555" x2="139.3308" y2="66.1994" gradientTransform="matrix(1 0 0 1 -133.2705 0)">
		<stop offset="0" style="stop-color:#3FB8EA"/>
		<stop offset="1" style="stop-color:#C2D117"/>
	</linearGradient>
	<path class="st4" d="M10.4,23.5v13.1c0,1.4,1.2,2.6,2.6,2.6c1.4,0,2.6-1.2,2.6-2.6V23.5c0-3.4,2.2-6.3,5.2-7.4V13   c0-0.8,0.1-1.6,0.2-2.4c-2.6,0.5-5,1.7-6.8,3.6C11.8,16.7,10.4,20,10.4,23.5z"/>
	<linearGradient id="SVGID_6_" gradientUnits="userSpaceOnUse" x1="33.8274" y1="4.5361" x2="41.7342" y2="22.2929">
		<stop offset="0" style="stop-color:#BFE2E8"/>
		<stop offset="1" style="stop-color:#C5E3DC"/>
	</linearGradient>
	<path class="st5" d="M41.7,13c0-4.3-3.5-7.8-7.8-7.8c-1.5,0-2.9,0.4-4.1,1.1c2.4,0.9,4.7,2.3,6.5,4.2c3.1,3.1,5,7.4,5.3,11.8"/>
	<linearGradient id="SVGID_7_" gradientUnits="userSpaceOnUse" x1="23.4559" y1="15.6725" x2="23.4559" y2="30.4317">
		<stop offset="0" style="stop-color:#5B6AAF"/>
		<stop offset="0.7472" style="stop-color:#7BC08C"/>
		<stop offset="1" style="stop-color:#7BC08C;stop-opacity:0"/>
	</linearGradient>
	<path class="st6" d="M23.5,15.6c-0.9,0-1.8,0.2-2.6,0.4v1.6v5.9v6.9h5.2v-6.9c0,0,0,0,0,0v-7.5C25.2,15.8,24.4,15.6,23.5,15.6z"/>
	<linearGradient id="SVGID_8_" gradientUnits="userSpaceOnUse" x1="10.652" y1="4.912" x2="10.652" y2="36.7429">
		<stop offset="0" style="stop-color:#5B6AAF"/>
		<stop offset="1" style="stop-color:#8BC270;stop-opacity:0"/>
	</linearGradient>
	<path class="st7" d="M6.9,12.1C2.5,16.5,0,22.4,0,28.7v6.9h5.2V23.4c0-4.8,1.9-9.5,5.3-12.9c2.9-2.9,6.7-4.7,10.7-5.2c0,0,0,0,0,0   C15.9,5.9,10.8,8.2,6.9,12.1z"/>
	<linearGradient id="SVGID_9_" gradientUnits="userSpaceOnUse" x1="10.4246" y1="38.165" x2="26.0619" y2="38.165">
		<stop offset="0" style="stop-color:#8AC279"/>
		<stop offset="1" style="stop-color:#7BBF8A"/>
	</linearGradient>
	<path class="st8" d="M20.8,26.6v10.1c0,0.1,0,0.2,0,0.3c-0.1,3.3-1.4,6.5-3.8,8.9c-1.8,1.8-4.1,3-6.6,3.6c0.9,0.2,1.7,0.3,2.6,0.3   c3.5,0,6.8-1.4,9.2-3.8c2.4-2.4,3.8-5.8,3.8-9.2V26.6H20.8z"/>
	
		<linearGradient id="SVGID_10_" gradientUnits="userSpaceOnUse" x1="468.077" y1="98.8539" x2="468.077" y2="53.7878" gradientTransform="matrix(-1 0 0 -1 493.5165 97.833)">
		<stop offset="0" style="stop-color:#693388"/>
		<stop offset="1" style="stop-color:#3FB8EA"/>
	</linearGradient>
	<path class="st9" d="M23.5,10.4c1,0,2,0.1,2.9,0.3c0.6-1.9,1.8-3.4,3.4-4.4c-2-0.7-4.2-1.1-6.3-1.1c-1.2,1.6-2,3.5-2.4,5.4   C21.9,10.5,22.7,10.4,23.5,10.4z"/>
	<path class="st10" d="M26.4,10.8c-1-0.2-1.9-0.3-2.9-0.3c-0.8,0-1.6,0.1-2.4,0.2c-0.1,0.8-0.2,1.6-0.2,2.4v3.1   c0.8-0.3,1.7-0.4,2.6-0.4c0.9,0,1.8,0.2,2.6,0.4V13C26.1,12.2,26.2,11.5,26.4,10.8z"/>
	<path class="st11" d="M44.3,24.4c1.3,0,2.4-1,2.6-2.2C46.6,16.4,44.1,11,40,6.9c-3-3-6.6-5-10.6-6.1c-1.8,0.6-3.4,1.7-4.8,3   c-0.4,0.4-0.8,0.9-1.2,1.4c2.2,0,4.3,0.4,6.3,1.1c1.2-0.7,2.6-1.1,4.1-1.1c4.3,0,7.8,3.5,7.8,7.8v9.3C42,23.5,43,24.4,44.3,24.4z"/>
	<linearGradient id="SVGID_11_" gradientUnits="userSpaceOnUse" x1="44.3055" y1="8.1029" x2="44.3055" y2="24.9887">
		<stop offset="0.1042" style="stop-color:#233573"/>
		<stop offset="1" style="stop-color:#1E768D"/>
	</linearGradient>
	<path class="st12" d="M46.8,21.6c-0.4-4.7-2.2-9.2-5.1-12.9v0l0,4.3v9.3c0.3,1.2,1.3,2.1,2.6,2.1c1.3,0,2.4-1,2.6-2.2   C46.9,22,46.9,21.8,46.8,21.6z"/>
	<linearGradient id="SVGID_12_" gradientUnits="userSpaceOnUse" x1="43.9688" y1="20.8723" x2="44.3984" y2="33.3309">
		<stop offset="0.3892" style="stop-color:#8AC279"/>
		<stop offset="0.8952" style="stop-color:#FFD600"/>
	</linearGradient>
	<circle class="st13" cx="44.3" cy="30.6" r="2.6"/>
	<linearGradient id="SVGID_13_" gradientUnits="userSpaceOnUse" x1="41.7272" y1="22.4806" x2="41.7272" y2="-0.2353">
		<stop offset="0" style="stop-color:#4E64A7"/>
		<stop offset="1" style="stop-color:#2E2254"/>
	</linearGradient>
	<path class="st14" d="M46.9,13c0-3.5-1.4-6.8-3.8-9.2C41.3,2,39,0.8,36.5,0.3c3,1.1,5.2,4.1,5.2,7.5v0.9c3,3.7,4.8,8.7,5.2,13.4   c0.1-0.2,0-1,0-1.3V13z"/>
	<path class="st15" d="M75,33.1c-1.7,0-2.5-0.8-2.5-2.6v-11c0-5-1.8-6.9-6.1-6.9c-3.6,0-5.6,2-5.6,6.9v13.6h-1.5   c-1.5,0-2.5-0.9-2.5-2.8v-11c0-6.7,4-10.6,10.1-10.6c6,0,9.6,3.4,9.6,10.6v13.8H75z"/>
	<path class="st15" d="M90.3,23h-5.9c0.4,4,3.2,6.8,7.6,6.8c3.7,0,5.9-1.2,7.2-2.5h0.2v1.8c0,2.5-2.7,4.4-8,4.4   c-6.6,0-11.2-5.1-11.2-11.9c0-7.7,4.8-12.9,11.2-12.9c4.6,0,9,3.5,9,8.3C100.4,21.2,98.5,23,90.3,23z M91,12.4   c-3.9,0-6.4,3.3-6.6,6.4l0,1l5.4-0.1c5.8-0.1,6.8-0.6,6.8-2.4C96.5,14.7,94.7,12.4,91,12.4z"/>
	<path class="st15" d="M108.7,9.2h8.2v1.3c0,1.5-1,2.5-3.1,2.5h-5.1v11.8c0,3.4,1.3,4.8,3.9,4.8c1.5,0,2.9-0.1,3.8-0.7h0.2v1.4   c0,2-1.6,3.1-4.3,3.1c-5.3,0-7.6-2.8-7.6-8.3V9.7c0-1.4,0.4-2.7,1-3.7c0.6-0.8,1.9-1.7,2.5-1.7h0.5V9.2z"/>
	<path class="st15" d="M122.2,5.9c-1.5,0-2.8-1.3-2.8-2.8c0-1.5,1.3-2.8,2.8-2.8c1.5,0,2.7,1.3,2.7,2.8   C124.9,4.6,123.7,5.9,122.2,5.9z M127.2,33.3c-4.7,0-7.2-2.3-7.2-7.1v-17h1.3c1.4,0,2.8,1.1,2.8,3.2v13.3c0,3,1.5,3.9,3.7,3.9h1.7   v1.3C129.5,32.4,128.6,33.3,127.2,33.3z"/>
	<path class="st15" d="M141.8,33.5c-5.9,0-11-5.4-11-12.1c0-8.2,3.8-12.7,10.5-12.7c2.9,0,5.5,1.3,7.2,4.6V0.9h1.1c2,0,3,1.1,3,3.3   v16.2C152.7,29.6,149.3,33.5,141.8,33.5z M141.5,12.5c-4.2,0-6.5,3.2-6.5,8.6c0,4.8,3,8.6,7.2,8.6c4.3,0,6.3-2.3,6.3-8.2   C148.5,17.2,147.2,12.5,141.5,12.5z"/>
	<path class="st15" d="M166.5,23h-5.9c0.4,4,3.2,6.8,7.6,6.8c3.7,0,5.9-1.2,7.2-2.5h0.2v1.8c0,2.5-2.7,4.4-8,4.4   c-6.6,0-11.2-5.1-11.2-11.9c0-7.7,4.8-12.9,11.2-12.9c4.6,0,9,3.5,9,8.3C176.7,21.2,174.7,23,166.5,23z M167.2,12.4   c-3.9,0-6.4,3.3-6.6,6.4l0,1l5.4-0.1c5.8-0.1,6.8-0.6,6.8-2.4C172.7,14.7,170.9,12.4,167.2,12.4z"/>
	<path class="st15" d="M189.9,23H184c0.4,4,3.2,6.8,7.6,6.8c3.7,0,5.9-1.2,7.2-2.5h0.2v1.8c0,2.5-2.7,4.4-8,4.4   c-6.6,0-11.2-5.1-11.2-11.9c0-7.7,4.8-12.9,11.2-12.9c4.6,0,9,3.5,9,8.3C200,21.2,198,23,189.9,23z M190.5,12.4   c-3.9,0-6.4,3.3-6.6,6.4l0,1l5.4-0.1c5.8-0.1,6.8-0.6,6.8-2.4C196.1,14.7,194.3,12.4,190.5,12.4z"/>
	<g>
		<path class="st16" d="M116.5,39.4v3.9h3v0.5h-3v2.8H116v-7.7h4.4v0.5H116.5z"/>
		<path class="st16" d="M125.8,46.7C125.8,46.7,125.8,46.7,125.8,46.7h-0.1c-1,0-1.9-0.5-2.6-1.2c-0.7-0.8-1.1-1.8-1.1-2.8    c0-1.1,0.4-2.1,1.1-2.8c0.7-0.7,1.6-1.1,2.6-1.2h0.1c1,0,1.9,0.5,2.6,1.2c0.7,0.8,1.1,1.8,1.1,2.8c0,1.1-0.4,2.1-1.1,2.8    C127.7,46.2,126.8,46.7,125.8,46.7z M125.7,39.2c-1.8,0-3.3,1.6-3.3,3.5c0,1.9,1.5,3.5,3.3,3.5c1.8,0,3.3-1.6,3.3-3.5    C129,40.8,127.6,39.2,125.7,39.2z M124.6,37.6h0.6v-0.6h-0.6V37.6z M126.3,37.6h0.6v-0.6h-0.6V37.6z"/>
		<path class="st16" d="M134.9,43.8l1.6,2.8H136l-1.6-2.7c-0.7,0.1-1.5-0.1-1.9-0.2v2.9H132v-7.5l0.2-0.1c0.1,0,2.5-0.8,3.8,0.2    c0.6,0.4,0.9,1.1,0.9,2.1s-0.3,1.6-0.9,2.1C135.7,43.6,135.3,43.7,134.9,43.8z M135.7,42.9c0.5-0.3,0.7-0.9,0.7-1.6    s-0.2-1.3-0.7-1.6c-1-0.7-2.6-0.4-3.2-0.2v3.7C133,43.3,134.7,43.7,135.7,42.9z"/>
		<path class="st16" d="M144.4,45.4c-0.7,0.7-1.7,1.1-2.7,1.1h-2.3v-7.7h2.3c1,0,2,0.4,2.7,1.1c0.7,0.7,1.1,1.7,1.1,2.7    C145.5,43.7,145.1,44.7,144.4,45.4z M145,42.7c0-1.8-1.5-3.4-3.4-3.4v0h-1.8v6.7h1.8C143.5,46.1,145,44.6,145,42.7z"/>
		<path class="st16" d="M152.5,46.1v0.5H148v-7.7h4.4v0.5h-3.9v3.9h3v0.5h-3v2.3H152.5z"/>
		<path class="st16" d="M157.9,43.8l1.6,2.8H159l-1.6-2.7c-0.7,0.1-1.5-0.1-1.9-0.2v2.9H155v-7.5l0.2-0.1c0.1,0,2.5-0.8,3.8,0.2    c0.6,0.4,0.9,1.1,0.9,2.1s-0.3,1.6-0.9,2.1C158.6,43.6,158.3,43.7,157.9,43.8z M158.7,42.9c0.5-0.3,0.7-0.9,0.7-1.6    s-0.2-1.3-0.7-1.6c-1-0.7-2.6-0.4-3.2-0.2v3.7C156,43.3,157.7,43.7,158.7,42.9z"/>
		<path class="st16" d="M164.6,46.7c-1.4,0-2.5-1.1-2.5-2.5v-5.3h0.5v5.3c0,1.1,0.9,2,2,2c1.1,0,2-0.9,2-2v-5.3h0.5v5.3    C167.1,45.5,166,46.7,164.6,46.7z"/>
		<path class="st16" d="M175.1,38.9v7.7h-0.4l-4.7-6.7v6.7h-0.5v-7.7h0.4l4.6,6.6v-6.6H175.1z"/>
		<path class="st16" d="M183.9,45.4l-0.1,0.2c-0.1,0.1-0.2,0.2-0.4,0.3c-0.6,0.5-1.4,0.8-2.2,0.8h-0.1c0,0-0.1,0-0.1,0    c-1,0-1.9-0.5-2.6-1.2c-0.7-0.7-1.1-1.7-1.1-2.8s0.4-2.1,1.1-2.8c0.7-0.7,1.6-1.1,2.6-1.2h0.1c1,0,1.9,0.5,2.6,1.2l0.1,0.1    l-0.4,0.3c-0.6-0.6-1.4-1-2.3-1.1c-1.8,0-3.3,1.6-3.3,3.5s1.5,3.4,3.3,3.5c0.9,0,1.7-0.4,2.3-1v-1.4h-2.5v-0.5h3V45.4z"/>
		<path class="st16" d="M190.9,46.1v0.5h-4.5v-7.7h4.4v0.5h-3.9v3.9h3v0.5h-3v2.3H190.9z"/>
		<path class="st16" d="M198.9,38.9v7.7h-0.4l-4.7-6.7v6.7h-0.5v-7.7h0.4l4.6,6.6v-6.6H198.9z"/>
	</g>
</g>
</svg>