<?xml version="1.0" encoding="UTF-8" standalone="no"?>
<!-- Created with Inkscape (http://www.inkscape.org/) -->

<svg
   width="390.69986mm"
   height="120.90462mm"
   viewBox="0 0 390.69985 120.90462"
   version="1.1"
   id="svg8"
   xml:space="preserve"
   xmlns="http://www.w3.org/2000/svg"
   xmlns:svg="http://www.w3.org/2000/svg"
   xmlns:rdf="http://www.w3.org/1999/02/22-rdf-syntax-ns#"
   xmlns:cc="http://creativecommons.org/ns#"
   xmlns:dc="http://purl.org/dc/elements/1.1/"><defs
     id="defs2" /><metadata
     id="metadata5"><rdf:RDF><cc:Work
         rdf:about=""><dc:format>image/svg+xml</dc:format><dc:type
           rdf:resource="http://purl.org/dc/dcmitype/StillImage" /></cc:Work></rdf:RDF></metadata><path
     style="font-weight:600;font-size:61.453px;line-height:1.25;font-family:Assistant;-inkscape-font-specification:'Assistant Semi-Bold';letter-spacing:0px;word-spacing:0px;fill:#2d7abe;stroke-width:1.53633"
     d="m 137.87253,67.295403 13.3353,-40.251715 h 7.25145 l 13.3353,40.251715 h -6.63692 l -6.51402,-21.877268 q -1.0447,-3.318462 -1.96649,-6.636924 -0.9218,-3.379915 -1.84359,-6.75983 h -0.24582 q -0.86034,3.379915 -1.84359,6.75983 -0.92179,3.318462 -1.90504,6.636924 l -6.57547,21.877268 z m 7.49726,-11.491711 v -4.91624 h 18.74317 v 4.91624 z m 43.20146,12.229147 q -4.11735,0 -7.80453,-1.597778 -3.68718,-1.597778 -6.51401,-4.363163 l 3.68718,-4.240257 q 2.15085,2.150855 4.97769,3.441368 2.82684,1.290513 5.77658,1.290513 3.68718,0 5.65368,-1.536325 1.96649,-1.597778 1.96649,-4.240257 0,-1.84359 -0.86034,-2.949744 -0.79889,-1.106154 -2.27376,-1.905043 -1.41342,-0.798889 -3.31846,-1.597778 l -5.59222,-2.45812 q -1.9665,-0.798889 -3.87154,-2.150855 -1.84359,-1.351966 -3.07265,-3.379915 -1.22906,-2.027949 -1.22906,-4.977693 0,-3.195556 1.72068,-5.653676 1.72068,-2.519573 4.67043,-3.932992 2.94974,-1.474872 6.75983,-1.474872 3.56427,0 6.69837,1.413419 3.19556,1.351966 5.46932,3.625727 l -3.25701,3.994445 q -1.84359,-1.659231 -4.0559,-2.581026 -2.2123,-0.983248 -4.85478,-0.983248 -3.07265,0 -4.97769,1.413419 -1.84359,1.351966 -1.84359,3.810086 0,1.720684 0.92179,2.826838 0.9218,1.106154 2.45812,1.84359 1.53632,0.737436 3.1341,1.474872 l 5.53077,2.335214 q 2.39667,0.983248 4.24026,2.396667 1.84359,1.413419 2.88829,3.441368 1.10615,2.027949 1.10615,4.977693 0,3.257009 -1.72068,5.960941 -1.65923,2.642479 -4.85479,4.240257 -3.19555,1.536325 -7.55872,1.536325 z m 28.69859,-0.737436 V 32.328646 h -11.86043 v -5.284958 h 29.98906 v 5.284958 h -11.86043 v 34.966757 z m 25.0728,0 V 27.043688 h 23.78231 v 5.284958 h -17.5141 v 11.307352 h 14.81017 v 5.284958 h -14.81017 v 13.089489 h 18.12863 v 5.284958 z m 32.75451,0 V 27.043688 h 13.15094 q 4.11736,0 7.37436,1.106154 3.31847,1.044701 5.22351,3.625727 1.90504,2.581026 1.90504,6.944189 0,4.178804 -1.90504,6.882736 -1.90504,2.703932 -5.22351,4.055898 -3.257,1.351966 -7.37436,1.351966 h -6.88273 v 16.285045 z m 22.00018,0 -10.0783,-18.005729 4.67043,-3.502821 12.47496,21.50855 z M 281.36536,45.971212 h 6.1453 q 4.42461,0 6.69838,-1.782137 2.33521,-1.84359 2.33521,-5.469317 0,-3.68718 -2.33521,-5.162052 -2.27377,-1.474872 -6.69838,-1.474872 h -6.1453 z m 29.49748,21.324191 V 27.043688 h 6.2682 v 40.251715 z m 32.50865,0.737436 q -5.03915,0 -9.09505,-2.396667 -4.05589,-2.45812 -6.45256,-7.128548 -2.33521,-4.670428 -2.33521,-11.245899 0,-4.91624 1.35196,-8.787779 1.41342,-3.871539 3.87154,-6.575471 2.51957,-2.765385 5.83804,-4.178804 3.31846,-1.413419 7.12854,-1.413419 3.74864,0 6.63693,1.536325 2.88829,1.474872 4.73188,3.502821 l -3.37992,4.055898 q -1.53632,-1.659231 -3.50282,-2.642479 -1.90504,-0.983248 -4.36316,-0.983248 -3.50282,0 -6.20675,1.84359 -2.64248,1.84359 -4.17881,5.284958 -1.47487,3.441368 -1.47487,8.173249 0,4.793334 1.41342,8.296155 1.41342,3.441368 4.0559,5.346411 2.64248,1.84359 6.20675,1.84359 2.76539,0 4.91624,-1.167607 2.21231,-1.167607 3.99445,-3.134103 l 3.37991,3.932992 q -2.39667,2.765385 -5.53077,4.30171 -3.07265,1.536325 -7.00564,1.536325 z m 29.55888,0 q -4.11735,0 -7.80453,-1.597778 -3.68718,-1.597778 -6.51402,-4.363163 l 3.68718,-4.240257 q 2.15086,2.150855 4.97769,3.441368 2.82684,1.290513 5.77659,1.290513 3.68718,0 5.65367,-1.536325 1.9665,-1.597778 1.9665,-4.240257 0,-1.84359 -0.86034,-2.949744 -0.79889,-1.106154 -2.27376,-1.905043 -1.41342,-0.798889 -3.31847,-1.597778 l -5.59222,-2.45812 q -1.9665,-0.798889 -3.87154,-2.150855 -1.84359,-1.351966 -3.07265,-3.379915 -1.22906,-2.027949 -1.22906,-4.977693 0,-3.195556 1.72069,-5.653676 1.72068,-2.519573 4.67042,-3.932992 2.94975,-1.474872 6.75983,-1.474872 3.56428,0 6.69838,1.413419 3.19556,1.351966 5.46932,3.625727 l -3.25701,3.994445 q -1.84359,-1.659231 -4.0559,-2.581026 -2.21231,-0.983248 -4.85479,-0.983248 -3.07265,0 -4.97769,1.413419 -1.84359,1.351966 -1.84359,3.810086 0,1.720684 0.9218,2.826838 0.92179,1.106154 2.45812,1.84359 1.53632,0.737436 3.1341,1.474872 l 5.53077,2.335214 q 2.39667,0.983248 4.24026,2.396667 1.84359,1.413419 2.88829,3.441368 1.10615,2.027949 1.10615,4.977693 0,3.257009 -1.72068,5.960941 -1.65923,2.642479 -4.85479,4.240257 -3.19556,1.536325 -7.55872,1.536325 z"
     id="text4532-8-2-6-2-0"
     transform="scale(1.009392,0.99069539)"
     aria-label="ASTERICS" /><path
     style="font-weight:600;font-size:31.0624px;line-height:1.25;font-family:Assistant;-inkscape-font-specification:'Assistant Semi-Bold';letter-spacing:0px;word-spacing:0px;fill:#2d7abe;stroke-width:0.776558"
     d="m 230.62033,104.2515 6.74054,-20.34587 h 3.66537 l 6.74054,20.34587 h -3.35474 l -3.29262,-11.058212 q -0.52806,-1.677369 -0.99399,-3.354739 -0.46594,-1.708432 -0.93188,-3.416864 h -0.12425 q -0.43487,1.708432 -0.93187,3.416864 -0.46593,1.67737 -0.96293,3.354739 l -3.32368,11.058212 z m 3.78961,-5.808666 v -2.484992 h 9.47404 v 2.484992 z m 13.20149,5.808666 6.74054,-20.34587 h 3.66537 l 6.74054,20.34587 h -3.35474 l -3.29262,-11.058212 q -0.52806,-1.677369 -0.99399,-3.354739 -0.46594,-1.708432 -0.93187,-3.416864 h -0.12425 q -0.43488,1.708432 -0.93188,3.416864 -0.46593,1.67737 -0.96293,3.354739 l -3.32368,11.058212 z m 3.78962,-5.808666 v -2.484992 h 9.47403 v 2.484992 z m 23.63848,6.181416 q -2.54712,0 -4.59724,-1.21143 -2.05011,-1.2425 -3.26155,-3.60324 -1.18037,-2.360743 -1.18037,-5.68442 0,-2.484992 0.68337,-4.441923 0.71444,-1.956931 1.95693,-3.323677 1.27356,-1.397808 2.95093,-2.112243 1.67737,-0.714435 3.60324,-0.714435 1.89481,0 3.35474,0.77656 1.45993,0.745497 2.39181,1.770557 l -1.70844,2.050118 q -0.77656,-0.838685 -1.77055,-1.335683 -0.96294,-0.496999 -2.20543,-0.496999 -1.77056,0 -3.13731,0.931872 -1.33568,0.931872 -2.11224,2.671367 -0.7455,1.739494 -0.7455,4.131299 0,2.422867 0.71444,4.193424 0.71443,1.739495 2.05012,2.702433 1.33568,0.93187 3.1373,0.93187 1.39781,0 2.48499,-0.59019 1.11825,-0.59018 2.01906,-1.58418 l 1.70843,1.98799 q -1.21143,1.39781 -2.79562,2.17437 -1.55312,0.77656 -3.54111,0.77656 z"
     id="text4532-4-8-1-9-1-8"
     transform="scale(1.0180516,0.98226849)"
     aria-label="AAC" /><path
     style="fill:#000000;stroke:#000000;stroke-width:0.795873"
     d="M 118.8172,85.32747 C 76.7032,88.58453 39.390498,-90.568171 22.250398,94.1546 49.875398,-80.875281 63.3309,91.9099 118.8172,85.32747 Z"
     id="path3-4-3-1-0-1" /><path
     style="fill:#2d7abe;fill-opacity:1;stroke:#2d7bbf;stroke-width:0.795873;stroke-opacity:0.941176"
     d="M 74.9826,33.65831 C 125.07,-0.58155 76.7093,71.93741 7.467598,119.5725 88.2532,78.39681 127.3336,-8.85201 74.9826,33.65831 Z"
     id="path4-8-4-4-8-9" /><circle
     style="fill:none;fill-opacity:0.941176;stroke:#000000;stroke-width:2.228;stroke-dasharray:none;stroke-opacity:0.941176"
     id="path5-2-1-4-0-5"
     cx="60.452309"
     cy="60.452312"
     r="59.33831" /><path
     style="fill:#2d7abe;fill-opacity:1;stroke:#2d7bbf;stroke-width:2.85718;stroke-dasharray:none;stroke-opacity:0.941176"
     d="m 298.57293,92.80833 h 29.4531"
     id="path6-7-0-2-9-7" /><path
     style="fill:#2d7abe;fill-opacity:1;stroke:#2d7bbf;stroke-width:2.85718;stroke-dasharray:none;stroke-opacity:0.941176"
     d="M 192.7008,92.33337 H 222.154"
     id="path6-0-0-8-7-5-0" /></svg>
